<svg xmlns="http://www.w3.org/2000/svg" viewBox="0 0 64 64" fill="currentColor">
  <g>
    <path d="m32,62.5C15.18,62.5,1.5,48.82,1.5,32S15.18,1.5,32,1.5s30.5,13.68,30.5,30.5-13.68,30.5-30.5,30.5Zm0-60C15.73,2.5,2.5,15.73,2.5,32s13.23,29.5,29.5,29.5,29.5-13.23,29.5-29.5S48.27,2.5,32,2.5Z"/>
    <g>
      <path d="m42.01,50.82h-20.03c-.79,0-1.51-.41-1.91-1.09s-.41-1.51-.02-2.2l8.33-14.88c.22-.4.22-.89,0-1.29l-8.33-14.88c-.39-.69-.38-1.51.02-2.2.4-.69,1.12-1.09,1.91-1.09h20.03c.79,0,1.51.41,1.91,1.09.4.69.41,1.51.02,2.2l-8.33,14.88c-.22.4-.22.89,0,1.29l8.33,14.88c.39.69.38,1.51-.02,2.2-.4.69-1.12,1.09-1.91,1.09ZM21.99,14.78c-.32,0-.48.21-.53.3-.05.09-.16.33,0,.61l8.33,14.88c.49.88.49,1.97,0,2.85l-8.33,14.88c-.16.28-.05.52,0,.61.05.09.21.3.53.3h20.03c.32,0,.47-.21.53-.3.05-.09.16-.33,0-.61l-8.33-14.88c-.49-.88-.49-1.97,0-2.85l8.33-14.88c.16-.28.05-.52,0-.61-.05-.09-.21-.3-.53-.3h-20.03Z"/>
      <path d="m40.61,48.34h-17.21c-.34,0-.64-.21-.75-.53-.12-.31-.02-.67.23-.89l8.32-7.03v-9.09l-3.81-6.83c-.14-.25-.14-.55,0-.79.14-.24.41-.39.69-.39h7.74c.28,0,.54.15.69.39.14.24.15.54.01.79l-3.73,6.83v9.09l8.32,7.03c.26.22.35.57.23.89-.12.32-.42.53-.75.53Zm-15.03-1.6h12.84l-6.42-5.42-6.42,5.42Zm3.87-22.35l2.54,4.56,2.49-4.56h-5.03Z"/>
    </g>
  </g>
</svg>
