<svg xmlns="http://www.w3.org/2000/svg" viewBox="0 0 64 64" fill="currentColor">
  <g>
    <path d="M32,62.5C15.18,62.5,1.5,48.82,1.5,32S15.18,1.5,32,1.5s30.5,13.68,30.5,30.5-13.68,30.5-30.5,30.5Zm0-60C15.73,2.5,2.5,15.73,2.5,32s13.23,29.5,29.5,29.5,29.5-13.23,29.5-29.5S48.27,2.5,32,2.5Z"/>
    <g>
      <path d="M34.75,43.42c0,2.62-2.12,4.75-4.75,4.75s-4.75-2.12-4.75-4.75c0-3.8,4.75-12.34,4.75-12.34,0,0,4.75,8.54,4.75,12.34Z"/>
      <path d="M16.11,31.98c-.15,0-.3-.07-.4-.2-.17-.22-.12-.53,.1-.7,.26-.2,6.6-4.87,16.19-4.87,10.39,0,15.98,4.69,16.22,4.89,.21,.18,.23,.5,.05,.71-.18,.21-.49,.23-.71,.05-.05-.05-5.56-4.65-15.57-4.65-9.24,0-15.53,4.62-15.59,4.67-.09,.07-.2,.1-.3,.1Z"/>
      <path d="M13.55,28.56c-.15,0-.3-.07-.4-.2-.17-.22-.12-.53,.1-.7,.31-.23,7.64-5.64,18.75-5.64,12.04,0,18.51,5.43,18.78,5.66,.21,.18,.23,.5,.05,.71-.18,.21-.49,.23-.71,.05-.06-.05-6.48-5.42-18.13-5.42-10.78,0-18.08,5.38-18.15,5.44-.09,.07-.2,.1-.3,.1Z"/>
      <path d="M11.16,24.58c-.15,0-.3-.07-.4-.2-.17-.22-.12-.53,.1-.7,.08-.06,8.61-6.35,21.14-6.35,13.57,0,20.86,6.11,21.16,6.37,.21,.18,.23,.5,.05,.71s-.49,.23-.71,.05c-.07-.06-7.33-6.13-20.51-6.13-12.18,0-20.45,6.09-20.54,6.15-.09,.07-.2,.1-.3,.1Z"/>
      <path d="M40.84,38.53c0,1.43-1.16,2.6-2.6,2.6s-2.6-1.16-2.6-2.6c0-2.08,2.6-6.75,2.6-6.75,0,0,2.6,4.67,2.6,6.75Z"/>
    </g>
  </g>
</svg>
