<svg xmlns="http://www.w3.org/2000/svg" viewBox="0 0 64 64" fill="currentColor">
  <g>
    <path d="M32,62.5C15.18,62.5,1.5,48.82,1.5,32S15.18,1.5,32,1.5s30.5,13.68,30.5,30.5-13.68,30.5-30.5,30.5Zm0-60C15.73,2.5,2.5,15.73,2.5,32s13.23,29.5,29.5,29.5,29.5-13.23,29.5-29.5S48.27,2.5,32,2.5Z"/>
    <path d="M18.51,35.97c-4.38,0-7.89-2.44-7.94-2.48-.22-.16-.28-.47-.12-.7,.16-.23,.47-.28,.7-.12,.35,.25,8.54,5.91,15.16-1.36,.19-.2,.5-.22,.71-.03,.2,.19,.22,.5,.03,.71-2.77,3.04-5.82,3.97-8.54,3.97Z"/>
    <path d="M18.48,39.39c-1.72,0-2.95-.33-2.99-.34-.27-.07-.42-.35-.35-.62s.35-.42,.62-.35c.33,.09,8.07,2.15,11.11-5.14,.11-.26,.4-.37,.65-.27,.25,.11,.38,.4,.27,.65-2.13,5.1-6.41,6.06-9.32,6.06Z"/>
    <path d="M45.66,36.53c-2.72,0-5.77-.94-8.54-3.97-.19-.2-.17-.52,.03-.71,.2-.19,.52-.17,.71,.03,6.64,7.28,14.82,1.6,15.16,1.36,.22-.16,.54-.11,.7,.12,.16,.23,.11,.54-.12,.7-.06,.04-3.57,2.48-7.94,2.48Z"/>
    <path d="M45.69,39.95c-2.91,0-7.19-.96-9.32-6.06-.11-.25,.01-.55,.27-.65,.25-.1,.55,.01,.65,.27,3.04,7.29,10.78,5.23,11.11,5.14,.26-.07,.54,.08,.62,.35s-.08,.54-.35,.62c-.03,0-1.27,.34-2.98,.34Z"/>
  </g>
</svg>
