<svg xmlns="http://www.w3.org/2000/svg" xmlns:xlink="http://www.w3.org/1999/xlink" x="0px" y="0px" width="600px" height="600px" viewBox="0 0 600 600" enable-background="new 0 0 600 600" xml:space="preserve" fill="currentColor" role="presentation"><g><g><path d="M589.555,289.554h-45.961c-5.497-58.065-57.022-100.679-115.09-95.182c-50.458,4.776-90.406,44.726-95.184,95.182h-66.644 c-5.497-58.065-57.024-100.679-115.089-95.182c-50.458,4.776-90.406,44.726-95.182,95.182h-45.96C4.677,289.554,0,294.231,0,300 c0,5.77,4.677,10.445,10.446,10.445h45.961c5.497,58.063,57.024,100.68,115.089,95.183c50.458-4.776,90.406-44.726,95.182-95.183 h66.748c5.497,58.063,57.024,100.68,115.09,95.183c50.458-4.776,90.406-44.726,95.184-95.183h45.855 c5.771,0,10.445-4.678,10.445-10.445C600,294.232,595.323,289.554,589.555,289.554z M161.49,384.818h-0.209 c-46.844-0.114-84.725-38.184-84.61-85.027c0.115-46.844,38.183-84.725,85.028-84.61c46.763,0.115,84.61,38.056,84.61,84.819 C246.309,346.844,208.334,384.818,161.49,384.818z M438.51,384.818h-0.209c-46.844-0.114-84.725-38.184-84.609-85.027 c0.115-46.844,38.185-84.725,85.027-84.61c46.765,0.115,84.61,38.056,84.61,84.819 C523.329,346.844,485.354,384.818,438.51,384.818z"></path></g></g><g><g><path d="M173.085,233.67L173.085,233.67c-5.769,0-10.446,4.677-10.446,10.446c0,5.769,4.677,10.446,10.446,10.446 c18.98,0,34.366,15.386,34.366,34.366c0,5.769,4.677,10.445,10.446,10.445s10.446-4.677,10.446-10.445 C228.343,258.409,203.604,233.67,173.085,233.67z"></path></g></g><g><g><path d="M449.479,233.67L449.479,233.67c-5.77,0-10.444,4.677-10.444,10.446c0,5.769,4.677,10.446,10.444,10.446 c18.979,0,34.365,15.386,34.365,34.366c0,5.769,4.678,10.445,10.446,10.445c5.768,0,10.445-4.677,10.445-10.445 C504.735,258.409,479.996,233.67,449.479,233.67z"></path></g></g><g><g><g><path d="M440.5,170.5c-1.791,0-3.583-0.684-4.95-2.05c-2.732-2.733-2.732-7.166,0-9.899l130.5-130.5 c2.734-2.733,7.166-2.733,9.9,0c2.732,2.733,2.732,7.166,0,9.899l-130.5,130.5C444.083,169.816,442.291,170.5,440.5,170.5z"></path></g></g><g><g><path d="M26.5,584.5c-1.792,0-3.583-0.684-4.95-2.05c-2.734-2.734-2.734-7.166,0-9.9l147-147c2.733-2.731,7.166-2.731,9.899,0 c2.734,2.734,2.734,7.166,0,9.9l-147,147C30.083,583.816,28.292,584.5,26.5,584.5z"></path></g></g><g><g><path d="M173.5,430.5"></path></g></g><g><g><path d="M440.5,163.5"></path></g></g></g></svg>