<svg xmlns="http://www.w3.org/2000/svg" viewBox="0 0 512 512" width="512" height="512" fill="currentColor" role="presentation"><g id="outline"><path d="M307.166,176.892l-15.5-8a8,8,0,1,0-7.34,14.216l15.5,8a8,8,0,1,0,7.34-14.216Z"></path><circle cx="289.496" cy="202" r="11"></circle><path d="M227.578,183.155a8,8,0,1,0-7.156-14.31l-16,8a8,8,0,1,0,7.156,14.31Z"></path><circle cx="221.496" cy="202" r="11"></circle><path d="M266.9,259.212A20.864,20.864,0,0,1,253.611,264H248a8,8,0,0,0,0,16h5.611a36.9,36.9,0,0,0,23.493-8.467A8,8,0,0,0,266.9,259.212Z"></path><path d="M248,248h16a8,8,0,0,0,0-16h-8v-8a8,8,0,0,0-16,0v16A8,8,0,0,0,248,248Z"></path><path d="M51.96,459.711l-3.879,27.158A8,8,0,0,0,56,496H456a8,8,0,0,0,7.919-9.131l-3.879-27.158a67.6,67.6,0,0,0-33.246-49.232l-91.145-52.768A7.969,7.969,0,0,0,332.8,353.6l-29.3-21.978v-22.61c0-.2-.016-.39-.03-.584a68.205,68.205,0,0,0,8.947-10.907A187.775,187.775,0,0,0,337.787,240h8.764a28.788,28.788,0,0,0,25.889-16,29.092,29.092,0,0,0,3.056-12.944V196.944A28.966,28.966,0,0,0,360,171.326v-45.2a54.955,54.955,0,0,0-1.842-14.1l-.433-1.628a54.732,54.732,0,0,0-32.553-36.829A65.126,65.126,0,0,0,268.446,40h-6.339a118.286,118.286,0,0,0-118.28,119.53L144,176.084c0,.123.016.243.023.365a28.854,28.854,0,0,0-8.527,20.495v2.405a79.983,79.983,0,0,0-9.268,102.162c-15.173,12.219-26.095,30.274-30.461,50.738A89.854,89.854,0,0,0,99.16,402.4l-13.954,8.079A67.6,67.6,0,0,0,51.96,459.711ZM236.8,348.46a83.673,83.673,0,0,0-8.588-26.065c-.064-.122-.118-.23-.181-.35a67.74,67.74,0,0,0,27.727,5.939h.088a67.683,67.683,0,0,0,31.653-7.828v13.552L256,371.5Zm11.058,38.262A23.96,23.96,0,0,1,226.168,407.9a92.535,92.535,0,0,0,9.653-25.772c.583-2.73,1.035-5.466,1.373-8.2Zm84.4-12.489,86.523,50.093A51.7,51.7,0,0,1,444.2,461.974L446.776,480H416V456a8,8,0,0,0-16,0v24H264V416.019a39.9,39.9,0,0,0,62.307-20.973ZM318.8,363.1l-7.873,27.554a23.922,23.922,0,0,1-46.777-3.928L297.28,346.96Zm8.7-169.143a171.619,171.619,0,0,1-28.451,94.775,51.616,51.616,0,0,1-43.2,23.256h-.084a51.687,51.687,0,0,1-42.9-22.838,171.474,171.474,0,0,1-29.362-96.12l0-18.768,16.616-4.122a92.316,92.316,0,0,0,55.868-40.518,92.367,92.367,0,0,0,55.65,40.618l15.866,4Zm32,2.991v14.112a13.012,13.012,0,0,1-1.367,5.789A12.875,12.875,0,0,1,346.551,224H341.09a188.812,188.812,0,0,0,2.406-30.047V184h3.055A12.959,12.959,0,0,1,359.5,196.944ZM174.641,105.256A102.867,102.867,0,0,1,262.107,56h6.339A49,49,0,0,1,312.3,83.487a8,8,0,0,0,4.671,4.1,38.794,38.794,0,0,1,25.3,26.917l.433,1.628A38.92,38.92,0,0,1,344,126.126V168h-.5a8,8,0,0,0-6.046-7.757l-21.91-5.521A76.285,76.285,0,0,1,263.5,109.205l-.074-.183A8,8,0,0,0,256,104h0a8,8,0,0,0-7.424,5.029,76.247,76.247,0,0,1-52.312,45.578l-22.691,5.628A8,8,0,0,0,167.5,168H164.44a29.031,29.031,0,0,0-4.52.355l-.094-8.993A102.205,102.205,0,0,1,174.641,105.256ZM151.5,196.944A12.958,12.958,0,0,1,164.44,184H167.5v9.028A188.806,188.806,0,0,0,170.053,224H164.44a12.875,12.875,0,0,1-11.578-7.155,13.014,13.014,0,0,1-1.366-5.789ZM111.415,355.587c4.127-19.347,15.231-35.982,30.469-45.646a8,8,0,0,0,1.993-11.775c-.105-.132-.214-.259-.326-.383a63.921,63.921,0,0,1-5.843-75.653c.262.632.538,1.258.844,1.87a28.785,28.785,0,0,0,25.888,16h9a187.685,187.685,0,0,0,26.148,58.085c.6.888,1.222,1.754,1.857,2.607.053.155.1.31.165.462l8.265,19.887a96.344,96.344,0,0,0,4.188,8.834,67.956,67.956,0,0,1,7.181,22.751c.023.23.058.459.1.687a76.782,76.782,0,0,1-1.172,25.478c-6.771,31.733-31.755,54.072-58.319,54.07a47.218,47.218,0,0,1-9.85-1.04C122.02,425.424,103.811,391.225,111.415,355.587ZM106.224,416.8c9.679,15.492,24.441,26.83,42.443,30.671a62.815,62.815,0,0,0,13.13,1.387c20.182,0,39.548-9.7,53.7-25.792a39.805,39.805,0,0,0,32.5-7.051V480H112V456a8,8,0,0,0-16,0v24H65.224L67.8,461.974a51.7,51.7,0,0,1,25.424-37.648Z"></path></g></svg>