<svg xmlns="http://www.w3.org/2000/svg" viewBox="0 0 64 64" fill="currentColor">
  <g>
    <path d="M32,62.5C15.18,62.5,1.5,48.82,1.5,32S15.18,1.5,32,1.5s30.5,13.68,30.5,30.5-13.68,30.5-30.5,30.5Zm0-60C15.73,2.5,2.5,15.73,2.5,32s13.23,29.5,29.5,29.5,29.5-13.23,29.5-29.5S48.27,2.5,32,2.5Z"/>
    <g>
      <path d="M24.84,47.74c-1.21,0-2.19-.98-2.19-2.19s.98-2.19,2.19-2.19,2.19,.98,2.19,2.19-.98,2.19-2.19,2.19Zm0-3.38c-.66,0-1.19,.53-1.19,1.19s.53,1.19,1.19,1.19,1.19-.53,1.19-1.19-.53,1.19-1.19,1.19Z"/>
      <path d="M29.39,50.57c-1.06,0-1.92-.86-1.92-1.92s.86-1.92,1.92-1.92,1.92,.86,1.92,1.92-.86,1.92-1.92,1.92Zm0-2.83c-.5,0-.92,.41-.92,.92s.41,.92,.92,.92,.92-.41,.92-.92-.41-.92-.92-.92Z"/>
      <path d="M18.08,24.07c-1.21,0-2.19-.98-2.19-2.19s.98-2.19,2.19-2.19,2.19,.98,2.19,2.19-.98,2.19-2.19,2.19Zm0-3.38c-.66,0-1.19,.53-1.19,1.19s.53,1.19,1.19,1.19,1.19-.53,1.19-1.19-.53,1.19-1.19,1.19Z"/>
      <path d="M29.04,32.73c-1.8,0-3.27-1.47-3.27-3.27s1.47-3.27,3.27-3.27,3.27,1.47,3.27,3.27-1.47,3.27-3.27,3.27Zm0-5.55c-1.25,0-2.27,1.02-2.27,2.27s1.02,2.27,2.27,2.27,2.27-1.02,2.27-2.27-1.02-2.27-2.27-2.27Z"/>
      <path d="M40.39,39.62c-1.46,0-2.64-1.19-2.64-2.64s1.19-2.64,2.64-2.64,2.64,1.19,2.64,2.64-1.19,2.64-2.64,2.64Zm0-4.29c-.91,0-1.64,.74-1.64,1.64s.74,1.64,1.64,1.64,1.64-.74,1.64-1.64-.74,1.64-1.64,1.64Z"/>
      <path d="M36.94,23.75c-1.21,0-2.19-.98-2.19-2.19s.98-2.19,2.19-2.19,2.19,.98,2.19,2.19-.98,2.19-2.19,2.19Zm0-3.38c-.66,0-1.19,.53-1.19,1.19s.53,1.19,1.19,1.19,1.19-.53,1.19-1.19-.53,1.19-1.19,1.19Z"/>
      <path d="M41.53,50.89c-2.09,0-3.78-1.7-3.78-3.78s1.7-3.78,3.78-3.78,3.78,1.7,3.78,3.78-1.7,3.78-3.78,3.78Zm0-6.57c-1.54,0-2.78,1.25-2.78,2.78s1.25,2.78,2.78,2.78,2.78-1.25,2.78-2.78-1.25,2.78-2.78,2.78Z"/>
      <path d="M45.92,29.74c-1.21,0-2.19-.98-2.19-2.19s.98-2.19,2.19-2.19,2.19,.98,2.19,2.19-.98,2.19-2.19,2.19Zm0-3.38c-.66,0-1.19,.53-1.19,1.19s.53,1.19,1.19,1.19,1.19-.53,1.19-1.19-.53,1.19-1.19,1.19Z"/>
      <path d="M18.27,36.62c-.89,0-1.62-.73-1.62-1.62s.73-1.62,1.62-1.62,1.62,.73,1.62,1.62-.73,1.62-1.62,1.62Zm0-2.24c-.34,0-.62,.28-.62,.62s.28,.62,.62,.62,.62-.28,.62-.62-.28-.62-.62-.62Z"/>
      <path d="M29.57,17.92c-.89,0-1.62-.73-1.62-1.62s.73-1.62,1.62-1.62,1.62,.73,1.62,1.62-.73,1.62-1.62,1.62Zm0-2.24c-.34,0-.62,.28-.62,.62s.28,.62,.62,.62,.62-.28,.62-.62-.28-.62-.62-.62Z"/>
    </g>
  </g>
</svg>
