<svg xmlns="http://www.w3.org/2000/svg" viewBox="0 0 64 64" fill="currentColor">
  <g>
    <path d="M32,62.5c-4.24,0-8.35-.86-12.22-2.55h0C8.68,55.08,1.5,44.11,1.5,32,1.5,15.18,15.18,1.5,32,1.5s30.5,13.68,30.5,30.5c0,12.14-7.2,23.12-18.34,27.97h0c-3.85,1.68-7.94,2.53-12.16,2.53Zm-11.39-3.28c3.62,1.52,7.44,2.28,11.39,2.28s7.73-.76,11.33-2.26c-1.26-3.41-2.77-5.69-2.78-5.72-.06-.08-.08-.18-.08-.28,0-.16,.08-.32,.22-.42,.23-.15,.54-.09,.69,.14,.07,.1,1.57,2.38,2.87,5.87,10.5-4.8,17.25-15.27,17.25-26.84,0-1.34-.09-2.66-.26-3.95-.85,.31-3.35,1.09-5.98,.61-.24-.04-.41-.25-.41-.49,0-.03,0-.06,0-.09,.05-.27,.31-.45,.58-.4,2.63,.47,5.22-.47,5.65-.64-1.54-9.07-7.24-16.74-15.06-20.99-.06,.13-.17,.24-.32,.29-13.61,4.12-27.73,.04-27.87,0-.07-.02-.14-.06-.19-.11C10.01,10.5,4.46,18.07,2.93,26.99c.14-.1,.32-.12,.49-.05,.03,.01,2.84,1.18,5.72,.66,.28-.05,.53,.13,.58,.4,0,.03,0,.06,0,.09,0,.24-.17,.45-.41,.49-3.18,.57-6.16-.68-6.28-.73-.09-.04-.16-.09-.21-.17-.21,1.41-.31,2.84-.31,4.31,0,11.54,6.73,22.01,17.2,26.81,1.29-3.47,2.79-5.74,2.86-5.84,.15-.23,.46-.29,.69-.14,.15,.1,.22,.26,.22,.42,0,.09-.03,.19-.08,.28-.02,.02-1.51,2.3-2.77,5.69Zm-1.73-53.63c3.03,.75,14.7,3.23,26.1-.07-3.92-1.93-8.33-3.01-12.98-3.01s-9.17,1.11-13.12,3.08Zm25.45,35.27c-.07,0-.14-.01-.21-.05-.21-.09-5.06-2.38-7.89-6.94-.05-.08-.08-.17-.08-.26,0-.17,.08-.33,.24-.43,.24-.15,.54-.07,.69,.16,2.67,4.29,7.41,6.54,7.46,6.56,.18,.08,.29,.27,.29,.45,0,.07-.02,.14-.05,.21-.08,.18-.27,.29-.45,.29Zm-25.48-.13c-.19,0-.37-.11-.45-.29-.03-.07-.05-.14-.05-.21,0-.19,.11-.37,.29-.45,.05-.02,4.79-2.27,7.46-6.56,.15-.23,.45-.31,.69-.16,.15,.09,.24,.26,.24,.43,0,.09-.02,.18-.08,.26-2.83,4.55-7.68,6.84-7.89,6.94-.07,.03-.14,.05-.21,.05Zm34.28-4.43s-.03,0-.05,0c-.33-.03-8.27-.8-14.5-5.75-.12-.1-.19-.24-.19-.39,0-.11,.04-.22,.11-.31,.17-.22,.49-.25,.7-.08,5.99,4.76,13.89,5.53,13.97,5.54,.26,.02,.45,.24,.45,.5,0,.02,0,.03,0,.05-.02,.26-.24,.46-.5,.46Zm-43.09-.13c-.26,0-.47-.2-.5-.46,0-.02,0-.03,0-.05,0-.26,.2-.47,.45-.5,.08,0,7.98-.78,13.97-5.54,.22-.17,.53-.14,.7,.08,.07,.09,.11,.2,.11,.31,0,.15-.06,.29-.19,.39-6.23,4.95-14.17,5.72-14.5,5.75-.02,0-.03,0-.05,0Zm48.95-3.4c-.1,0-2.14-.01-3.85-1.11-.15-.09-.23-.26-.23-.42,0-.09,.03-.19,.08-.27,.15-.23,.46-.3,.69-.15,1.48,.95,3.3,.96,3.31,.96h0c.28,0,.5,.22,.5,.5,0,.28-.22,.5-.5,.5h0Zm-53.43-.08h0c-.28,0-.5-.22-.5-.5s.22-.5,.5-.5c.02,0,1.85-.01,3.31-.95,.23-.15,.54-.08,.69,.15,.05,.08,.08,.18,.08,.27,0,.17-.08,.33-.23,.42-1.71,1.1-3.75,1.11-3.85,1.11ZM32.25,12.57c-6.2,0-10.94-1.37-11.01-1.39-.22-.06-.36-.26-.36-.48,0-.05,0-.09,.02-.14,.08-.26,.36-.41,.62-.34,.1,.03,10.5,3.02,20.5,0,.26-.08,.54,.07,.62,.33,.01,.05,.02,.1,.02,.14,0,.22-.14,.41-.36,.48-3.45,1.04-6.94,1.39-10.06,1.39Z"/>
  </g>
</svg>
